# xmcd CD database file
#
# Track frame offsets:
#	150
#	14790
#	27751
#	42690
#	56410
#	69489
#	82958
#	97563
#	111318
#	120472
#	131240
#	142383
#
# Disc length: 2077 seconds
#
# Revision: 0
# Processed by: cddbd v1.5.1PL2 Copyright (c) Steve Scherf et al.
# Submitted via: CDex 1.60beta1-cs1
#
DISCID=a9081b0c
DTITLE=Various Artist - JAZZ STANDARD 1
DYEAR=1900
DGENRE=Jazz
TTITLE0=AS TIME GOES BY
TTITLE1=HONEY SUCKLE ROSE ROOM
TTITLE2=EMBRACEABLE YOU
TTITLE3=AIN'T MISBEHAVIN
TTITLE4=A GUY IS A GUY
TTITLE5=GEORGIA ON MY MIND
TTITLE6=I GOTTA RIGHT TO SING THE BLUES
TTITLE7=ON THE SUNNY SIDE OF THE STREET
TTITLE8=COME ON-A MY HOUSE
TTITLE9=SHANGHAI
TTITLE10=TENNESSEE WALTZ
TTITLE11=MOCKIN' BIRD HILL
EXTD=
EXTT0=
EXTT1=
EXTT2=
EXTT3=
EXTT4=
EXTT5=
EXTT6=
EXTT7=
EXTT8=
EXTT9=
EXTT10=
EXTT11=
PLAYORDER=
